#!OML:ASF I:\Actors\actors\Patient Classification 2\Patient 1\Session 1\actor1.ASF
:FULLY-SPECIFIED
:DEGREES
961
root -0.998316 17.6985 7.27852 -6.37167 -3.07578 -4.11763
lowerback 0.824688 1.23 -2.14073
upperback -6.73154 1.50507 -0.553494
thorax -7.52891 0.85321 0.506763
lowerneck -47.8629 -2.57643 -0.749049
upperneck 16.0976 -3.21943 1.28543
head 12.1104 -1.22355 -0.0181936
rclavicle -4.77083e-015 9.54166e-015
rhumerus 14.5039 -37.4084 -22.8258
rradius 84.4415
rwrist 1.17342
rhand -50.2422 -49.6434
rfingers 7.12502
rthumb -22.8215 -78.3132
lclavicle -4.77083e-015 9.54166e-015
lhumerus 26.4723 31.372 28.7851
lradius 79.9272
lwrist -1.91782
lhand -38.3389 -54.4281
lfingers 7.12502
lthumb -11.3661 -24.7561
rfemur 27.9226 1.86816 19.8732
rtibia -12.7599
rfoot -15.3503 -12.4613
rtoes 2.87823
lfemur 33.0913 -6.42494 -15.4857
ltibia -23.4932
lfoot -7.47388 22.1239
ltoes -10.6114
962
root -0.992672 17.7005 7.27185 -6.34337 -3.08388 -4.1443
lowerback 1.02628 1.25437 -1.96452
upperback -6.85154 1.53706 -0.594173
thorax -7.77042 0.858401 0.356251
lowerneck -47.7169 -2.66482 -0.809395
upperneck 16.3389 -3.3314 1.3744
head 12.1969 -1.26011 0.00290169
rclavicle 1.15295e-014 0
rhumerus 14.5741 -37.2669 -22.5078
rradius 83.9419
rwrist 1.1039
rhand -50.4671 -49.2958
rfingers 7.12502
rthumb -23.0374 -77.9389
lclavicle 1.15295e-014 0
lhumerus 26.919 31.1949 28.7289
lradius 79.4015
lwrist -1.85467
lhand -38.3122 -54.6137
lfingers 7.12502
lthumb -11.3404 -24.9403
rfemur 27.8691 1.93034 19.9075
rtibia -12.7755
rfoot -15.3521 -12.5344
rtoes 2.71562
lfemur 33.0355 -6.42177 -15.4656
ltibia -23.4931
lfoot -7.39656 22.1269
ltoes -10.722
963
root -0.987593 17.7017 7.26655 -6.32844 -3.12425 -4.16937
lowerback 1.05141 1.24828 -1.88961
upperback -6.83517 1.53554 -0.546735
thorax -7.76622 0.854549 0.363964
lowerneck -47.66 -2.67811 -0.858033
upperneck 16.5427 -3.34729 1.44833
head 12.2763 -1.25679 0.0359841
rclavicle 2.10712e-014 -1.27222e-014
rhumerus 14.9393 -37.273 -22.3523
rradius 83.509
rwrist 1.10552
rhand -50.8975 -49.7461
rfingers 7.12502
rthumb -23.4503 -78.3371
lclavicle 2.10712e-014 -1.27222e-014
lhumerus 27.3197 31.2399 28.6279
lradius 78.8823
lwrist -1.79949
lhand -38.4778 -54.5146
lfingers 7.12502
lthumb -11.5001 -24.8501
rfemur 27.8218 2.01495 19.9389
rtibia -12.7607
rfoot -15.3573 -12.5776
rtoes 2.64617
lfemur 33.0086 -6.39462 -15.4482
ltibia -23.4963
lfoot -7.35787 22.1279
ltoes -10.7981
964
root -0.998351 17.6918 7.26796 -6.47834 -2.69483 -4.23321
lowerback 1.03612 1.07592 -2.08601
upperback -6.73224 1.30339 -0.443577
thorax -7.64851 0.755291 0.601986
lowerneck -47.4991 -2.63907 -0.864218
upperneck 16.6315 -3.28899 1.41443
head 12.2941 -1.2385 0.0343245
rclavicle 2.98177e-014 1.59028e-015
rhumerus 15.3594 -37.2367 -22.1543
rradius 83.0445
rwrist 0.800893
rhand -51.1194 -50.3605
rfingers 7.12502
rthumb -23.6631 -78.9241
lclavicle 2.98177e-014 1.59028e-015
lhumerus 27.5529 31.2622 28.3834
lradius 78.4436
lwrist -1.62672
lhand -38.9007 -54.354
lfingers 7.12502
lthumb -11.9079 -24.7126
rfemur 28.1004 2.20813 20.2509
rtibia -12.7181
rfoot -15.9325 -12.9848
rtoes 2.72309
lfemur 33.1208 -6.25082 -15.1649
ltibia -23.5391
lfoot -7.11282 21.5351
ltoes -11.3675
965
root -0.977353 17.7029 7.25724 -6.37245 -3.0352 -4.14616
lowerback 1.15454 1.18272 -1.83616
upperback -6.79838 1.45393 -0.46776
thorax -7.78519 0.813797 0.421585
lowerneck -47.2435 -2.59377 -0.848817
upperneck 16.6623 -3.22884 1.35635
head 12.2774 -1.22311 0.0205176
rclavicle 1.31198e-014 -1.11319e-014
rhumerus 15.7602 -37.142 -21.9161
rradius 82.4733
rwrist 0.381723
rhand -51.3052 -50.2456
rfingers 7.12502
rthumb -23.8414 -78.7861
lclavicle 1.31198e-014 -1.11319e-014
lhumerus 27.8058 31.3122 28.1513
lradius 77.9831
lwrist -1.4747
lhand -39.0854 -54.1841
lfingers 7.12502
lthumb -12.086 -24.5531
rfemur 27.8264 1.99193 19.8749
rtibia -12.7105
rfoot -15.4025 -12.5881
rtoes 2.20465
lfemur 33.0394 -6.48419 -15.5234
ltibia -23.5174
lfoot -7.39563 22.1073
ltoes -10.8623
966
root -0.988784 17.6958 7.25829 -6.45994 -2.60291 -4.18108
lowerback 1.11999 1.02061 -2.06913
upperback -6.74238 1.23123 -0.393933
thorax -7.7071 0.720972 0.648406
lowerneck -46.8633 -2.61678 -0.907727
upperneck 16.3906 -3.25262 1.42199
head 12.569 -1.22658 0.0177638
rclavicle 6.75868e-015 3.02153e-014
rhumerus 16.1245 -37.0561 -21.7689
rradius 81.869
rwrist 0.264064
rhand -51.543 -49.9754
rfingers 7.12502
rthumb -24.0693 -78.4859
lclavicle 6.75868e-015 3.02153e-014
lhumerus 28.223 31.3854 28.1356
lradius 77.4595
lwrist -1.53835
lhand -38.751 -53.8724
lfingers 7.12502
lthumb -11.7636 -24.2227
rfemur 28.0647 2.1876 20.1559
rtibia -12.7228
rfoot -15.9642 -13.0279
rtoes 2.15424
lfemur 33.0431 -6.27555 -15.2407
ltibia -23.5066
lfoot -7.14126 21.4633
ltoes -11.1225
967
root -0.96629 17.7068 7.24765 -6.28036 -2.96767 -4.0983
lowerback 1.19635 1.1441 -1.76807
upperback -6.85307 1.4061 -0.440834
thorax -7.86648 0.787634 0.413789
lowerneck -46.6207 -2.63689 -0.93642
upperneck 16.5579 -3.29153 1.49262
head 12.611 -1.23434 0.042456
rclavicle 3.02153e-014 1.03368e-014
rhumerus 16.5296 -36.9779 -21.6547
rradius 81.2329
rwrist 0.294185
rhand -51.682 -50.0347
rfingers 7.12502
rthumb -24.2026 -78.5275
lclavicle 3.02153e-014 1.03368e-014
lhumerus 28.7206 31.4691 28.2641
lradius 76.9414
lwrist -1.70711
lhand -38.2514 -53.5853
lfingers 7.12502
lthumb -11.2817 -23.9087
rfemur 27.7207 2.00737 19.7844
rtibia -12.7525
rfoot -15.4699 -12.6632
rtoes 2.1401
lfemur 32.8383 -6.39917 -15.5553
ltibia -23.4417
lfoot -7.38604 21.9782
ltoes -10.6227
968
root -0.96113 17.7055 7.24302 -6.27587 -2.96992 -4.06155
lowerback 1.24638 1.13542 -1.74779
upperback -6.85363 1.3957 -0.42265
thorax -7.896 0.782016 0.421262
lowerneck -46.4672 -2.62346 -0.959041
upperneck 16.7432 -3.28274 1.54014
head 12.6706 -1.22411 0.0667242
rclavicle -1.66979e-014 -1.51076e-014
rhumerus 16.9261 -36.8426 -21.3851
rradius 80.5576
rwrist 0.203204
rhand -51.7208 -50.1542
rfingers 7.12502
rthumb -24.2399 -78.642
lclavicle -1.66979e-014 -1.51076e-014
lhumerus 29.1509 31.5563 28.2696
lradius 76.4648
lwrist -1.61841
lhand -37.9 -53.6416
lfingers 7.12502
lthumb -10.9428 -23.9467
rfemur 27.6988 2.06717 19.74
rtibia -12.7395
rfoot -15.5379 -12.6748
rtoes 2.34904
lfemur 32.81 -6.34981 -15.6005
ltibia -23.4378
lfoot -7.35517 21.9463
ltoes -10.9621
969
root -0.956828 17.7057 7.23965 -6.25038 -2.97516 -4.05961
lowerback 1.27092 1.12402 -1.7124
upperback -6.82336 1.38577 -0.369941
thorax -7.87761 0.776604 0.45754
lowerneck -46.4286 -2.55397 -0.911188
upperneck 16.9388 -3.20077 1.44618
head 12.7438 -1.19969 0.0376174
rclavicle 2.78299e-015 -3.18055e-015
rhumerus 17.322 -36.709 -21.0666
rradius 79.956
rwrist -0.0572448
rhand -51.6849 -49.7777
rfingers 7.12502
rthumb -24.2054 -78.2701
lclavicle 2.78299e-015 -3.18055e-015
lhumerus 29.5151 31.6196 28.1824
lradius 75.9701
lwrist -1.32842
lhand -37.7993 -53.9359
lfingers 7.12502
lthumb -10.8456 -24.236
rfemur 27.6525 2.13703 19.7465
rtibia -12.7093
rfoot -15.5926 -12.6837
rtoes 2.37767
lfemur 32.7882 -6.39041 -15.6292
ltibia -23.4465
lfoot -7.38924 21.9712
ltoes -10.9735
970
root -0.953128 17.7061 7.23606 -6.22805 -3.00309 -4.10731
lowerback 1.31244 1.11895 -1.61597
upperback -6.78446 1.38818 -0.305809
thorax -7.8586 0.773753 0.470438
lowerneck -46.4037 -2.51237 -0.90764
upperneck 17.1274 -3.14163 1.40145
head 12.8184 -1.1802 0.0304717
rclavicle 1.98785e-014 -1.66979e-014
rhumerus 17.7488 -36.6177 -20.8435
rradius 79.438
rwrist -0.217594
rhand -51.6858 -49.6442
rfingers 7.12502
rthumb -24.2063 -78.1366
lclavicle 1.98785e-014 -1.66979e-014
lhumerus 29.8831 31.6494 28.1131
lradius 75.4106
lwrist -1.23873
lhand -38.0241 -54.0237
lfingers 7.12502
lthumb -11.0625 -24.3353
rfemur 27.6032 2.23277 19.8165
rtibia -12.674
rfoot -15.6798 -12.7182
rtoes 2.54275
lfemur 32.7866 -6.45689 -15.608
ltibia -23.456
lfoot -7.47255 22.0112
ltoes -10.7138
971
root -0.965833 17.6976 7.23876 -6.33963 -2.66984 -4.18452
lowerback 1.29861 0.987279 -1.7853
upperback -6.6807 1.21061 -0.208351
thorax -7.74068 0.699635 0.683444
lowerneck -46.225 -2.47577 -0.915326
upperneck 17.2119 -3.09953 1.41783
head 12.8307 -1.16084 0.0477501
rclavicle 2.38542e-014 -1.82882e-014
rhumerus 18.1426 -36.5058 -20.6234
rradius 78.874
rwrist -0.0201807
rhand -51.8619 -50.4865
rfingers 7.12502
rthumb -24.3751 -78.9562
lclavicle 2.38542e-014 -1.82882e-014
lhumerus 30.2035 31.6854 27.9514
lradius 74.8509
lwrist -1.31
lhand -38.2238 -53.9951
lfingers 7.12502
lthumb -11.2551 -24.3171
rfemur 27.8243 2.55539 20.1801
rtibia -12.6041
rfoot -16.3301 -13.152
rtoes 2.88016
lfemur 32.8979 -6.22867 -15.2894
ltibia -23.5317
lfoot -7.20039 21.4048
ltoes -10.9948
972
root -0.946147 17.7086 7.23098 -6.20435 -3.06687 -4.12258
lowerback 1.40171 1.11752 -1.50706
upperback -6.73573 1.39658 -0.224306
thorax -7.85716 0.77371 0.493188
lowerneck -46.0155 -2.41256 -0.874145
upperneck 17.2986 -3.04407 1.40392
head 12.8383 -1.1373 0.0481931
rclavicle -1.94809e-014 2.06736e-014
rhumerus 18.5794 -36.3752 -20.3976
rradius 78.2305
rwrist 0.15371
rhand -51.5585 -49.5534
rfingers 7.12502
rthumb -24.0843 -78.062
lclavicle -1.94809e-014 2.06736e-014
lhumerus 30.5095 31.7636 27.7164
lradius 74.3046
lwrist -1.2967
lhand -38.0469 -53.7452
lfingers 7.12502
lthumb -11.0845 -24.0579
rfemur 27.4969 2.39098 19.848
rtibia -12.5467
rfoot -15.8149 -12.7542
rtoes 2.61818
lfemur 32.8362 -6.42607 -15.6037
ltibia -23.5878
lfoot -7.46489 22.0039
ltoes -10.2617
973
root -0.965437 17.694 7.23611 -6.3968 -2.45716 -4.24003
lowerback 1.41631 0.891533 -1.78368
upperback -6.62154 1.08869 -0.0891237
thorax -7.74453 0.643606 0.816137
lowerneck -45.8536 -2.38412 -0.894046
upperneck 17.504 -3.01951 1.45849
head 12.905 -1.11889 0.078577
rclavicle -1.98785e-014 1.19271e-014
rhumerus 19.0862 -36.2071 -20.1839
rradius 77.5875
rwrist -0.0224889
rhand -51.5213 -49.7042
rfingers 7.12502
rthumb -24.0486 -78.2175
lclavicle -1.98785e-014 1.19271e-014
lhumerus 30.8852 31.8425 27.6185
lradius 73.7135
lwrist -1.33771
lhand -37.8347 -53.2778
lfingers 7.12502
lthumb -10.8799 -23.5797
rfemur 27.9229 2.67519 20.3514
rtibia -12.5424
rfoot -16.6326 -13.3603
rtoes 2.92476
lfemur 32.9422 -6.1693 -15.1303
ltibia -23.5949
lfoot -7.13401 21.1495
ltoes -11.1568
974
root -0.960909 17.6939 7.23174 -6.36289 -2.45918 -4.25104
lowerback 1.48572 0.883388 -1.70856
upperback -6.61327 1.0838 -0.042228
thorax -7.77518 0.638352 0.822681
lowerneck -45.6506 -2.34277 -0.880585
upperneck 17.6304 -2.98332 1.46597
head 12.9365 -1.10122 0.0839331
rclavicle 9.14409e-015 -9.54166e-015
rhumerus 19.5385 -36.0777 -19.9242
rradius 76.9766
rwrist -0.195576
rhand -51.0828 -48.7681
rfingers 7.12502
rthumb -23.628 -77.3363
lclavicle 9.14409e-015 -9.54166e-015
lhumerus 31.2821 31.9245 27.6215
lradius 73.1256
lwrist -1.38441
lhand -37.6955 -53.0218
lfingers 7.12502
lthumb -10.7455 -23.3167
rfemur 27.8902 2.64338 20.3322
rtibia -12.5708
rfoot -16.5915 -13.339
rtoes 3.0125
lfemur 32.8739 -6.12935 -15.1101
ltibia -23.5776
lfoot -7.09251 21.126
ltoes -11.4994
975
root -0.932688 17.709 7.21905 -6.12532 -3.0592 -4.12011
lowerback 1.59504 1.09324 -1.31658
upperback -6.6974 1.37845 -0.131135
thorax -7.92536 0.756166 0.482489
lowerneck -45.4653 -2.26489 -0.732262
upperneck 17.6947 -2.94861 1.37291
head 12.934 -1.0913 0.0309896
rclavicle -2.42517e-014 3.18055e-015
rhumerus 19.8804 -36.0485 -19.6582
rradius 76.3639
rwrist 0.0373446
rhand -50.4483 -47.6888
rfingers 7.12502
rthumb -23.0193 -76.3342
lclavicle -2.42517e-014 3.18055e-015
lhumerus 31.6567 31.9821 27.5185
lradius 72.5805
lwrist -1.25397
lhand -37.6536 -52.8777
lfingers 7.12502
lthumb -10.7052 -23.1705
rfemur 27.4232 2.30614 19.7556
rtibia -12.6222
rfoot -15.7179 -12.6826
rtoes 2.88935
lfemur 32.6746 -6.38717 -15.6112
ltibia -23.5332
lfoot -7.46893 21.9917
ltoes -10.7225
